<?xml version="1.0" encoding="utf-8"?>
<!-- Generator: Adobe Illustrator 16.0.0, SVG Export Plug-In . SVG Version: 6.00 Build 0)  -->
<!DOCTYPE svg PUBLIC "-//W3C//DTD SVG 1.1//EN" "http://www.w3.org/Graphics/SVG/1.1/DTD/svg11.dtd">
<svg version="1.1" id="Layer_1" xmlns="http://www.w3.org/2000/svg" xmlns:xlink="http://www.w3.org/1999/xlink" x="0px" y="0px"
	 width="1891.65px" height="149.229px" viewBox="0 0 1891.65 149.229" enable-background="new 0 0 1891.65 149.229"
	 xml:space="preserve">
<path fill="#FFFFFF" d="M12.178,115.958h36.661c12.679,0,18.681-4.582,20.324-13.899c3.852-21.844-50.081-20.927-44.478-52.699
	c3.07-17.413,17.267-26.883,34.069-26.883h34.064l-2.37,13.44h-36.05c-7.943,0-13.766,4.431-15.22,12.679
	C35.704,68.3,89.474,68.3,83.737,100.836C80.72,117.944,68.008,129.4,49.066,129.4H9.808L12.178,115.958z"/>
<path fill="#FFFFFF" d="M89.394,129.4l18.854-106.924h13.442l-7.057,40.02c4.932-4.583,12.398-7.943,20.189-7.943
	c16.956,0,29.104,7.333,24.743,32.078l-7.542,42.771h-13.442l7.542-42.771c2.639-14.969-4.855-19.246-14.479-19.246
	c-9.776,0-19.273,7.943-21.266,19.246l-7.542,42.771L89.394,129.4L89.394,129.4z"/>
<path fill="#FFFFFF" d="M214.561,54.552c20.316,0,35.289,15.581,31.303,38.188c-3.986,22.607-24.453,38.187-44.771,38.187
	c-20.317,0-35.289-15.579-31.303-38.187C173.777,70.133,194.244,54.552,214.561,54.552z M203.356,118.097
	c13.901,0,25.814-10.388,28.454-25.356c2.64-14.97-5.611-25.356-19.512-25.356c-13.9,0-25.814,10.388-28.454,25.356
	C181.205,107.71,189.456,118.097,203.356,118.097z"/>
<path fill="#FFFFFF" d="M359.563,56.081l-8.779,49.796c-2.424,13.748-15.721,25.051-30.691,25.051
	c-8.248,0-15.904-3.359-19.554-10.387c-6.127,7.026-14.969,10.387-23.218,10.387c-14.97,0-24.28-11.303-21.856-25.051l8.78-49.796
	h13.442l-8.241,46.741c-1.644,9.318,2.5,15.275,10.443,15.275c8.707,0,15.221-4.889,17.43-17.413l7.864-44.604h13.442l-7.864,44.604
	c-2.209,12.524,2.581,17.413,11.289,17.413c7.942,0,14.188-5.957,15.83-15.275l8.241-46.741H359.563L359.563,56.081z"/>
<path fill="#FFFFFF" d="M455.979,68.912h-26.273l-6.787,38.493c-1.213,6.874,1.592,9.165,8.466,9.165h16.192l-2.264,12.831h-18.024
	c-13.748,0-20.075-9.165-17.517-23.676l11.984-67.975h13.442l-3.232,18.33h26.274L455.979,68.912z"/>
<path fill="#FFFFFF" d="M454.325,129.4l18.854-106.924h13.442l-7.057,40.02c4.932-4.583,12.397-7.943,20.188-7.943
	c16.956,0,29.105,7.333,24.742,32.078l-7.541,42.771h-13.442l7.541-42.771c2.641-14.969-4.854-19.246-14.479-19.246
	c-9.776,0-19.272,7.943-21.267,19.246l-7.541,42.771L454.325,129.4L454.325,129.4z"/>
<path fill="#FFFFFF" d="M556.65,105.266l-3.614-10.692l39.759-20.163c-3.775-4.583-7.164-7.026-15.412-7.026
	c-13.9,0-25.813,10.388-28.454,25.356c-2.64,14.969,5.611,25.356,19.514,25.356c15.887,0,23.514-9.471,28.634-22.912l13.298,1.68
	c-4.947,19.399-23.114,34.063-44.194,34.063c-20.315,0-35.289-15.579-31.303-38.187s24.453-38.188,44.77-38.188
	c17.108,0,26.978,9.014,31.347,23.219L556.65,105.266z"/>
<path fill="#FFFFFF" d="M616.247,129.4l8.78-49.796c2.424-13.748,15.721-25.052,30.689-25.052c8.249,0,15.905,3.361,19.556,10.388
	c6.127-7.026,14.969-10.388,23.217-10.388c14.971,0,24.28,11.305,21.856,25.052l-8.779,49.796h-13.442l8.241-46.742
	c1.644-9.317-2.501-15.274-10.443-15.274c-8.708,0-15.221,4.889-17.43,17.413l-7.864,44.604h-13.442l7.864-44.604
	c2.209-12.524-2.582-17.413-11.289-17.413c-7.942,0-14.187,5.957-15.83,15.274l-8.241,46.742H616.247z"/>
<path fill="#FFFFFF" d="M743.299,112.292c4.889,0,8.313,3.973,7.424,9.012c-0.889,5.041-5.715,9.014-10.603,9.014
	c-4.89,0-8.313-3.973-7.423-9.014C733.586,116.264,738.41,112.292,743.299,112.292z"/>
<path fill="#FFFFFF" d="M785.766,112.292c4.889,0,8.313,3.973,7.424,9.012c-0.889,5.041-5.715,9.014-10.603,9.014
	c-4.889,0-8.312-3.973-7.423-9.014C776.053,116.264,780.877,112.292,785.766,112.292z"/>
<path fill="#FFFFFF" d="M828.23,112.292c4.889,0,8.313,3.973,7.425,9.012c-0.891,5.041-5.716,9.014-10.604,9.014
	c-4.889,0-8.313-3.973-7.423-9.014C818.52,116.264,823.343,112.292,828.23,112.292z"/>
<path fill="#FFFFFF" d="M1037.91,54.552c20.316,0,35.289,15.581,31.303,38.188s-24.453,38.187-44.77,38.187
	c-20.317,0-35.289-15.579-31.304-38.187C997.127,70.133,1017.594,54.552,1037.91,54.552z M1026.706,118.097
	c13.901,0,25.813-10.388,28.454-25.356c2.64-14.97-5.611-25.356-19.514-25.356c-13.899,0-25.813,10.388-28.452,25.356
	S1012.806,118.097,1026.706,118.097z"/>
<path fill="#FFFFFF" d="M1074.054,129.4l7.541-42.771c3.395-19.246,19.1-32.078,36.972-32.078c17.873,0,29.053,12.832,25.658,32.078
	l-7.541,42.771h-13.441l7.541-42.771c1.993-11.303-4.855-19.246-14.479-19.246c-9.623,0-19.271,7.943-21.266,19.246l-7.541,42.771
	H1074.054z"/>
<path fill="#FFFFFF" d="M1165.525,53.331l10.938-30.854h12.831l-12.467,30.854H1165.525z"/>
<path fill="#FFFFFF" d="M1234.114,68.912h-26.274l-6.787,38.493c-1.213,6.874,1.592,9.165,8.466,9.165h16.192l-2.263,12.831h-18.025
	c-13.748,0-20.075-9.165-17.517-23.676l11.984-67.975h13.442l-3.232,18.33h26.274L1234.114,68.912z"/>
<path fill="#FFFFFF" d="M1327.447,68.912h-26.274l-6.788,38.493c-1.212,6.874,1.594,9.165,8.467,9.165h16.192l-2.263,12.831h-18.025
	c-13.748,0-20.074-9.165-17.517-23.676l11.985-67.975h13.441l-3.232,18.33h26.274L1327.447,68.912z"/>
<path fill="#FFFFFF" d="M1351.74,105.266l-3.614-10.692l39.759-20.163c-3.774-4.583-7.164-7.026-15.412-7.026
	c-13.9,0-25.813,10.388-28.453,25.356c-2.641,14.969,5.61,25.356,19.513,25.356c15.887,0,23.514-9.471,28.634-22.912l13.298,1.68
	c-4.947,19.399-23.114,34.063-44.194,34.063c-20.315,0-35.289-15.579-31.303-38.187s24.453-38.188,44.771-38.188
	c17.107,0,26.977,9.014,31.346,23.219L1351.74,105.266z"/>
<path fill="#FFFFFF" d="M1414.085,129.4l18.854-106.924h13.441L1427.527,129.4H1414.085z"/>
<path fill="#FFFFFF" d="M1447.995,129.4l18.854-106.924h13.442L1461.438,129.4H1447.995z"/>
<path fill="#FFFFFF" d="M1573.532,68.912h-26.274l-6.787,38.493c-1.213,6.874,1.592,9.165,8.466,9.165h16.192l-2.263,12.831h-18.025
	c-13.748,0-20.075-9.165-17.517-23.676l11.984-67.975h13.442l-3.232,18.33h26.274L1573.532,68.912z"/>
<path fill="#FFFFFF" d="M1571.877,129.4l18.854-106.924h13.442l-7.057,40.02c4.933-4.583,12.397-7.943,20.188-7.943
	c16.956,0,29.105,7.333,24.742,32.078l-7.541,42.771h-13.442l7.541-42.771c2.641-14.969-4.854-19.246-14.479-19.246
	c-9.776,0-19.272,7.943-21.267,19.246l-7.541,42.771L1571.877,129.4L1571.877,129.4z"/>
<path fill="#FFFFFF" d="M1674.201,105.266l-3.613-10.692l39.759-20.163c-3.774-4.583-7.163-7.026-15.411-7.026
	c-13.901,0-25.814,10.388-28.454,25.356c-2.641,14.969,5.61,25.356,19.513,25.356c15.887,0,23.514-9.471,28.634-22.912l13.299,1.68
	c-4.947,19.399-23.114,34.063-44.194,34.063c-20.316,0-35.289-15.579-31.303-38.187c3.985-22.607,24.452-38.188,44.77-38.188
	c17.108,0,26.977,9.014,31.346,23.219L1674.201,105.266z"/>
<path fill="#FFFFFF" d="M1733.799,129.4l8.78-49.796c2.424-13.748,15.721-25.052,30.69-25.052c8.248,0,15.904,3.361,19.555,10.388
	c6.127-7.026,14.969-10.388,23.217-10.388c14.971,0,24.281,11.305,21.857,25.052l-8.78,49.796h-13.442l8.241-46.742
	c1.644-9.317-2.501-15.274-10.442-15.274c-8.709,0-15.222,4.889-17.431,17.413l-7.864,44.604h-13.441l7.863-44.604
	c2.209-12.524-2.582-17.413-11.289-17.413c-7.942,0-14.187,5.957-15.829,15.274l-8.241,46.742H1733.799z"/>
<path fill="#FFFFFF" d="M1856.116,112.292c5.651,0,8.663,4.582,7.801,9.47c-0.89,5.041-5.489,9.472-11.142,9.472
	c-5.5,0-8.689-4.431-7.801-9.472C1845.836,116.875,1850.616,112.292,1856.116,112.292z M1850.993,104.96l14.544-82.483h12.831
	l-14.544,82.483H1850.993z"/>
<g>
	<path fill="#FFFFFF" d="M990.659,22.476l-12.012,68.125c-4.256,24.136-22.539,40.326-44.077,40.326
		c-23.829,0-34.649-18.33-30.825-40.02c3.609-20.468,22.907-36.354,41.695-36.354c7.332,0,14.09,1.527,19.859,5.193L962.821,73.8
		c-4.296-3.36-11.242-6.416-17.352-6.416c-14.512,0-25.913,10.081-28.58,25.204c-2.639,14.968,5.585,25.509,19.943,25.509
		c12.832,0,25.247-9.776,28.803-29.938l11.581-65.683H990.659z"/>
</g>
</svg>
